<?xml version="1.0" encoding="UTF-8"?><svg id="b" xmlns="http://www.w3.org/2000/svg" viewBox="0 0 350.2 424.8"><defs><style>.d{fill:#a12242;}</style></defs><g id="c"><path class="d" d="m34.3,424.8h281.6c18.9,0,34.3-15.4,34.3-34.3V34.3c0-1.1,0-4.8-1.3-9.3-2.5-8.7-8.7-15-8.7-15-7-7.1-15.2-9-18.4-9.5-30.5-.2-61-.3-91.5-.5-1.7,0-4.1.1-6.8,1-1.7.6-3.2,1.3-4.3,2-18.3,12.4-36.6,24.9-54.9,37.3-2.9,2.1-7.2,4.6-12.9,6.3-8.6,2.6-16,2.1-20.3,1.5H30.4c-2.1,0-12.6,0-21.1,8.1C2.4,63,1,71,.6,73.5.4,179.2.2,284.8,0,390.5c0,1.9-.5,15.7,10.5,25.8,9.8,9,21.6,8.6,23.8,8.5Z"/></g></svg>